<svg xmlns="http://www.w3.org/2000/svg" version="1.1" xmlns:xlink="http://www.w3.org/1999/xlink" xmlns:svgjs="http://svgjs.dev/svgjs" width="1000" height="1000" viewBox="0 0 1000 1000"><rect width="1000" height="1000" fill="#ffffff"></rect><g transform="matrix(0.7,0,0,0.7,149.57575757575756,405.0777957977941)"><svg viewBox="0 0 396 111" data-background-color="#ffffff" preserveAspectRatio="xMidYMid meet" height="280" width="1000" xmlns="http://www.w3.org/2000/svg" xmlns:xlink="http://www.w3.org/1999/xlink"><g id="tight-bounds" transform="matrix(1,0,0,1,0.2400000000000091,0.1345401484847173)"><svg viewBox="0 0 395.52 110.73091970303058" height="110.73091970303058" width="395.52"><g><svg viewBox="0 0 554.7754493398827 155.31653452181246" height="110.73091970303058" width="395.52"><g><rect width="4.5358358148800955" height="155.31653452181246" x="142.8456977792432" y="0" fill="#000000" opacity="1" stroke-width="0" stroke="transparent" fill-opacity="1" class="rect-o-0" data-fill-palette-color="primary" rx="1%" id="o-0" data-palette-color="#4a596d"></rect></g><g transform="matrix(1,0,0,1,159.25544933988272,0.38635953861147243)"><svg viewBox="0 0 395.52 154.5438154445895" height="154.5438154445895" width="395.52"><g id="textblocktransform"><svg viewBox="0 0 395.52 154.5438154445895" height="154.5438154445895" width="395.52" id="textblock"><g><svg viewBox="0 0 395.52 108.976844105904" height="108.976844105904" width="395.52"><g transform="matrix(1,0,0,1,0,0)"><svg width="395.52" viewBox="-0.25 -35.5 284.66644287109375 75" height="108.976844105904" data-palette-color="#4a596d"><g transform="matrix(1,0,0,1,0,0)"><g><svg width="3.733312883660307" viewBox="1.9000000953674316 -36.86000061035156 23.920000076293945 37.31999969482422" height="5.825852770195966" data-palette-color="#4a596d" id="scriptelement" x="276.85663129742306" y="27.39392309457731"><path d="M16.25-10.9L9.52-10.9 9.52-11.51Q9.53-14.61 10.08-16.46 10.62-18.31 11.67-19.44 12.71-20.58 14.19-21.5L14.19-21.5Q15.29-22.21 16.16-22.98 17.03-23.74 17.54-24.67 18.06-25.6 18.06-26.76L18.06-26.76Q18.06-27.98 17.47-28.91 16.89-29.83 15.9-30.33 14.91-30.82 13.73-30.82L13.73-30.82Q12.57-30.82 11.54-30.32 10.51-29.81 9.85-28.83 9.2-27.84 9.14-26.38L9.14-26.38 1.9-26.38Q1.99-29.94 3.6-32.25 5.22-34.57 7.88-35.72 10.55-36.86 13.76-36.86L13.76-36.86Q17.29-36.86 20.01-35.7 22.73-34.53 24.27-32.33 25.82-30.13 25.82-27.02L25.82-27.02Q25.82-24.95 25.13-23.34 24.45-21.73 23.22-20.5 22-19.26 20.33-18.27L20.33-18.27Q18.93-17.44 18.03-16.53 17.13-15.63 16.7-14.44 16.26-13.25 16.25-11.51L16.25-11.51 16.25-10.9ZM13.03 0.46L13.03 0.46Q11.26 0.46 10.01-0.79 8.75-2.04 8.77-3.8L8.77-3.8Q8.75-5.54 10.01-6.78 11.26-8.03 13.03-8.03L13.03-8.03Q14.72-8.03 16-6.78 17.28-5.54 17.29-3.8L17.29-3.8Q17.28-2.63 16.68-1.66 16.09-0.69 15.13-0.12 14.17 0.46 13.03 0.46Z" opacity="1" transform="matrix(1,0,0,1,0,0)" fill="#000000" class="undefined-123" data-fill-palette-color="primary" id="p-123"></path></svg></g></g><path d="M273.03 30.307C273.03 27.163 275.579 24.614 278.723 24.614 281.868 24.614 284.416 27.163 284.416 30.307 284.416 33.451 281.868 36 278.723 36 275.579 36 273.03 33.451 273.03 30.307ZM278.723 35.447C281.562 35.447 283.864 33.146 283.864 30.307 283.864 27.468 281.562 25.166 278.723 25.166 275.884 25.166 273.583 27.468 273.583 30.307 273.583 33.146 275.884 35.447 278.723 35.447Z" fill="#000000" id="scriptcircle" data-fill-palette-color="primary"></path><svg></svg><svg></svg><g class="undefined-text-0" data-fill-palette-color="primary" id="text-0"><path xmlns="http://www.w3.org/2000/svg" d="M30.9 0l-3.5-8.1h-17.5l-3.45 8.1h-6.7l15.75-35h6.4l15.8 35zM12.1-13.2h13.15l-6.6-15.3zM53 0.5c-2.7 0-5.307-0.383-7.82-1.15-2.52-0.767-4.513-1.783-5.98-3.05v0l2.25-5.05c1.433 1.133 3.193 2.057 5.28 2.77 2.08 0.72 4.17 1.08 6.27 1.08v0c2.6 0 4.543-0.417 5.83-1.25 1.28-0.833 1.92-1.933 1.92-3.3v0c0-1-0.357-1.827-1.07-2.48-0.72-0.647-1.63-1.153-2.73-1.52-1.1-0.367-2.6-0.783-4.5-1.25v0c-2.667-0.633-4.823-1.267-6.47-1.9-1.653-0.633-3.07-1.627-4.25-2.98-1.187-1.347-1.78-3.17-1.78-5.47v0c0-1.933 0.527-3.693 1.58-5.28 1.047-1.58 2.63-2.837 4.75-3.77 2.113-0.933 4.703-1.4 7.77-1.4v0c2.133 0 4.233 0.267 6.3 0.8 2.067 0.533 3.85 1.3 5.35 2.3v0l-2.05 5.05c-1.533-0.9-3.133-1.583-4.8-2.05-1.667-0.467-3.283-0.7-4.85-0.7v0c-2.567 0-4.473 0.433-5.72 1.3-1.253 0.867-1.88 2.017-1.88 3.45v0c0 1 0.36 1.817 1.08 2.45 0.713 0.633 1.62 1.133 2.72 1.5 1.1 0.367 2.6 0.783 4.5 1.25v0c2.6 0.6 4.733 1.223 6.4 1.87 1.667 0.653 3.093 1.647 4.28 2.98 1.18 1.333 1.77 3.133 1.77 5.4v0c0 1.933-0.523 3.683-1.57 5.25-1.053 1.567-2.647 2.817-4.78 3.75-2.133 0.933-4.733 1.4-7.8 1.4zM98 0l-12.35-14.65-5.55 5.7v8.95h-6.5v-35h6.5v17.95l17.3-17.95h7.3l-14.7 15.65 15.6 19.35z" fill="#000000" fill-rule="nonzero" stroke="none" stroke-width="1" stroke-linecap="butt" stroke-linejoin="miter" stroke-miterlimit="10" stroke-dasharray="" stroke-dashoffset="0" font-family="none" font-weight="none" font-size="none" text-anchor="none" style="mix-blend-mode: normal" data-fill-palette-color="primary" opacity="1"></path><path xmlns="http://www.w3.org/2000/svg" d="M30.9 39l-3.5-8.1h-17.5l-3.45 8.1h-6.7l15.75-35h6.4l15.8 35zM12.1 25.8h13.15l-6.6-15.3zM66.8 4h6.45v35h-5.35l-19.3-23.7v23.7h-6.45v-35h5.35l19.3 23.7zM111.45 4l-13.7 22.65v12.35h-6.5v-12.25l-13.75-22.75h6.95l10.25 17.05 10.35-17.05zM122.3 39v-29.5h-11.6v-5.5h29.7v5.5h-11.6v29.5zM169.9 4h6.5v35h-6.5v-15h-18.1v15h-6.5v-35h6.5v14.45h18.1zM185.8 39v-35h6.5v35zM226.4 4h6.45v35h-5.35l-19.3-23.7v23.7h-6.45v-35h5.35l19.3 23.7zM266.15 32v-10.9h6.15v13.95c-1.8 1.433-3.9 2.533-6.3 3.3-2.4 0.767-4.867 1.15-7.4 1.15v0c-3.567 0-6.783-0.777-9.65-2.33-2.867-1.547-5.117-3.687-6.75-6.42-1.633-2.733-2.45-5.817-2.45-9.25v0c0-3.433 0.817-6.517 2.45-9.25 1.633-2.733 3.89-4.877 6.77-6.43 2.887-1.547 6.13-2.32 9.73-2.32v0c2.933 0 5.6 0.483 8 1.45 2.4 0.967 4.417 2.383 6.05 4.25v0l-4.1 4c-2.667-2.667-5.883-4-9.65-4v0c-2.467 0-4.66 0.517-6.58 1.55-1.913 1.033-3.413 2.483-4.5 4.35-1.08 1.867-1.62 4-1.62 6.4v0c0 2.333 0.54 4.433 1.62 6.3 1.087 1.867 2.587 3.333 4.5 4.4 1.92 1.067 4.097 1.6 6.53 1.6v0c2.733 0 5.133-0.6 7.2-1.8z" fill="#000000" fill-rule="nonzero" stroke="none" stroke-width="1" stroke-linecap="butt" stroke-linejoin="miter" stroke-miterlimit="10" stroke-dasharray="" stroke-dashoffset="0" font-family="none" font-weight="none" font-size="none" text-anchor="none" style="mix-blend-mode: normal" data-fill-palette-color="primary" opacity="1"></path></g></svg></g></svg></g><g transform="matrix(1,0,0,1,0,120.85075985166341)"><svg viewBox="0 0 375.74399999999997 33.693055592926115" height="33.693055592926115" width="375.74399999999997"><g transform="matrix(1,0,0,1,0,0)"><svg width="375.74399999999997" viewBox="0.24000000953674316 -37.55158996582031 586.9588623046875 52.6415901184082" height="33.693055592926115" data-palette-color="#aab7c0"><path d="M22.22-6.88L22.22-6.88Q22.22-6.01 22.14-4.59 22.07-3.17 21.73-1.83 21.39-0.49 20.65 0.49 19.92 1.46 18.6 1.46L18.6 1.46Q16.8 1.46 15.82 0.29 14.84-0.88 14.89-2.64L14.89-2.64Q13.33-1.27 11.35-0.49 9.38 0.29 7.32 0.29L7.32 0.29Q5.91 0.29 4.64-0.39 3.37-1.07 2.39-2.15 1.42-3.22 0.83-4.57 0.24-5.91 0.24-7.23L0.24-7.23Q0.24-9.57 1.68-11.33 3.13-13.09 5.22-14.33 7.32-15.58 9.69-16.31 12.06-17.04 13.92-17.29L13.92-17.29Q13.92-17.53 13.94-17.72 13.96-17.92 13.96-18.16L13.96-18.16Q13.96-19.68 13.13-20.61 12.3-21.53 10.79-21.53L10.79-21.53Q9.57-21.53 8.69-21.12 7.81-20.7 7.03-20.19 6.25-19.68 5.47-19.26 4.69-18.85 3.71-18.85L3.71-18.85Q2.64-18.85 1.88-19.53 1.12-20.21 1.12-21.29L1.12-21.29Q1.12-22.9 2.08-24.22 3.03-25.54 4.47-26.44 5.91-27.34 7.59-27.86 9.28-28.37 10.69-28.37L10.69-28.37Q12.01-28.37 13.33-28.05 14.65-27.73 15.82-27.08 16.99-26.42 17.94-25.46 18.9-24.51 19.48-23.24L19.48-23.24Q20.36-21.44 20.9-19.41 21.44-17.38 21.73-15.26 22.02-13.13 22.12-11.01 22.22-8.89 22.22-6.88ZM14.4-8.45L14.4-8.45 14.26-11.77Q14.16-11.77 14.06-11.79 13.96-11.82 13.87-11.82L13.87-11.82Q13.23-11.82 12.28-11.5 11.33-11.18 10.45-10.62 9.57-10.06 8.96-9.38 8.35-8.69 8.35-7.96L8.35-7.96Q8.35-7.28 8.84-7.03 9.33-6.79 9.96-6.79L9.96-6.79Q11.04-6.79 12.26-7.35 13.48-7.91 14.4-8.45ZM39.01 1.37L39.01 1.37Q38.18 1.37 37.69 0.61 37.2-0.15 36.96-1.12 36.72-2.1 36.64-3.1 36.57-4.1 36.57-4.64L36.57-4.64Q36.57-6.1 36.74-7.57 36.91-9.03 37.13-10.5 37.35-11.96 37.52-13.43 37.69-14.89 37.69-16.36L37.69-16.36Q37.69-16.94 37.64-17.63 37.6-18.31 37.42-18.92 37.25-19.53 36.86-19.92 36.47-20.31 35.84-20.31L35.84-20.31Q35.4-20.31 34.86-19.6 34.32-18.9 33.86-17.99 33.4-17.09 33.08-16.19 32.76-15.28 32.76-14.84L32.76-14.84Q32.76-13.77 32.79-12.67 32.81-11.57 32.81-10.45L32.81-10.45 32.81-7.62Q32.76-6.74 32.66-5.81 32.57-4.88 32.37-4L32.37-4Q32.22-3.13 31.93-2.32 31.64-1.51 31.17-0.9 30.71-0.29 30.08 0.1 29.44 0.49 28.56 0.49L28.56 0.49Q27.59 0.49 26.95-0.15 26.32-0.78 25.93-1.78 25.53-2.78 25.36-4.03 25.19-5.27 25.12-6.47 25.05-7.67 25.07-8.67 25.1-9.67 25.1-10.25L25.1-10.25 25.1-12.55Q25.1-14.4 25.02-16.21 24.95-18.02 24.95-19.82L24.95-19.82Q24.95-20.8 24.97-22.31 25-23.83 25.34-25.27 25.68-26.71 26.46-27.73 27.24-28.76 28.76-28.76L28.76-28.76Q29.44-28.76 29.98-28.32 30.52-27.88 30.93-27.25 31.35-26.61 31.61-25.88 31.88-25.15 32.03-24.61L32.03-24.61Q32.52-25.29 33.18-25.93 33.84-26.56 34.67-27.05 35.5-27.54 36.52-27.83 37.55-28.13 38.86-28.13L38.86-28.13Q41.35-28.13 42.75-26.93 44.14-25.73 44.8-23.95 45.46-22.17 45.6-20.12 45.75-18.07 45.75-16.41L45.75-16.41Q45.75-15.58 45.6-13.94 45.46-12.3 45.14-10.33 44.82-8.35 44.28-6.27 43.75-4.2 43.02-2.49 42.28-0.78 41.28 0.29 40.28 1.37 39.01 1.37ZM59.08 14.21L59.08 14.21Q57.91 14.21 56.42 13.84 54.93 13.48 53.61 12.79 52.29 12.11 51.39 11.13 50.48 10.16 50.48 8.89L50.48 8.89Q50.48 8.4 50.73 7.91 50.97 7.42 51.39 7.06 51.8 6.69 52.29 6.47 52.78 6.25 53.32 6.25L53.32 6.25Q53.9 6.25 54.46 6.42 55.02 6.59 55.61 6.84L55.61 6.84Q56.25 7.08 56.86 7.28 57.47 7.47 58.15 7.47L58.15 7.47Q59.37 7.47 60.27 6.64 61.18 5.81 61.81 4.47 62.45 3.13 62.84 1.49 63.23-0.15 63.45-1.76 63.67-3.37 63.76-4.79 63.86-6.2 63.91-7.08L63.91-7.08Q62.2-4.49 60.52-3.1 58.83-1.71 56.39-1.71L56.39-1.71Q54.54-1.71 53.14-2.49 51.75-3.27 50.78-4.54 49.8-5.81 49.16-7.45 48.53-9.08 48.21-10.84 47.9-12.6 47.8-14.28 47.7-15.97 47.8-17.38L47.8-17.38Q47.85-18.46 48.07-20.19 48.29-21.92 48.77-23.58 49.26-25.24 50.14-26.39 51.02-27.54 52.44-27.44L52.44-27.44Q53.36-27.39 53.95-26.64 54.54-25.88 54.9-24.76 55.27-23.63 55.44-22.29 55.61-20.95 55.66-19.63 55.71-18.31 55.68-17.21 55.66-16.11 55.66-15.53L55.66-15.53Q55.66-14.7 55.71-13.87 55.76-13.04 56.05-12.38 56.34-11.72 56.95-11.33 57.56-10.94 58.69-10.94L58.69-10.94Q59.96-10.94 60.71-11.57 61.47-12.21 61.84-13.16 62.2-14.11 62.3-15.21 62.4-16.31 62.4-17.29L62.4-17.29Q62.4-17.97 62.4-18.95 62.4-19.92 62.42-21 62.45-22.07 62.62-23.12 62.79-24.17 63.15-25.02 63.52-25.88 64.13-26.42 64.74-26.95 65.72-26.95L65.72-26.95Q66.94-26.95 67.82-26 68.7-25.05 69.31-23.51 69.92-21.97 70.28-20.12 70.65-18.26 70.84-16.43 71.04-14.6 71.11-13.06 71.19-11.52 71.19-10.64L71.19-10.64Q71.19-8.59 71.04-5.98 70.89-3.37 70.48-0.61 70.06 2.15 69.23 4.81 68.4 7.47 67.06 9.57 65.72 11.67 63.76 12.94 61.81 14.21 59.08 14.21ZM85.73 1.76L85.73 1.76Q82.27 1.76 80.34 0.85 78.41-0.05 77.46-1.71 76.51-3.37 76.31-5.71 76.12-8.06 76.12-10.94L76.12-10.94Q76.12-13.23 76.26-15.55 76.41-17.87 76.7-20.51L76.7-20.51Q76.02-20.51 75.63-20.48 75.24-20.46 74.99-20.46L74.99-20.46Q73.43-20.46 72.28-21.14 71.14-21.83 71.14-23.24L71.14-23.24Q71.14-24.12 71.79-24.8 72.45-25.49 73.48-25.98 74.5-26.46 75.7-26.76 76.9-27.05 77.97-27.15L77.97-27.15Q77.97-28.52 78.17-30.18 78.36-31.84 78.87-33.28 79.39-34.72 80.27-35.69 81.14-36.67 82.51-36.67L82.51-36.67Q83.29-36.67 83.9-36.21 84.51-35.74 84.9-35.03 85.3-34.33 85.49-33.45 85.69-32.57 85.69-31.74L85.69-31.74Q85.69-30.76 85.54-29.74 85.39-28.71 85-27.2L85-27.2Q85.83-27.29 86.13-27.32 86.42-27.34 86.66-27.34L86.66-27.34Q87.49-27.34 88.4-27.2 89.3-27.05 90.06-26.71 90.81-26.37 91.3-25.81 91.79-25.24 91.79-24.46L91.79-24.46Q91.79-23.58 91.08-22.9 90.37-22.22 89.3-21.73 88.22-21.24 87-20.97 85.78-20.7 84.71-20.61L84.71-20.61Q84.42-18.6 84.29-16.92 84.17-15.23 84.03-13.53L84.03-13.53Q83.93-12.7 83.85-11.84 83.78-10.99 83.78-10.11L83.78-10.11Q83.78-9.47 83.83-8.62 83.88-7.76 84.17-6.98 84.47-6.2 85.1-5.64 85.73-5.08 86.86-5.08L86.86-5.08Q87.54-5.08 88.27-5.2 89.01-5.32 89.74-5.32L89.74-5.32Q91.01-5.32 91.57-4.44 92.13-3.56 92.13-2.2L92.13-2.2Q92.13-1.17 91.52-0.42 90.91 0.34 89.98 0.81 89.06 1.27 87.91 1.51 86.76 1.76 85.73 1.76ZM115.27-12.65L115.27-12.65Q115.27-11.82 115.25-10.18 115.22-8.54 115.1-6.76 114.98-4.98 114.78-3.39 114.59-1.81 114.3-1.07L114.3-1.07Q113.91-0.15 113.27 0.54 112.64 1.22 111.56 1.22L111.56 1.22Q109.9 1.22 109.17-0.1 108.44-1.42 108.19-3.37 107.95-5.32 108-7.62 108.05-9.91 107.95-11.87 107.85-13.82 107.41-15.14 106.97-16.46 105.8-16.46L105.8-16.46Q104.19-16.46 103.33-15.94 102.48-15.43 102.11-14.6 101.75-13.77 101.67-12.7 101.6-11.62 101.5-10.45L101.5-10.45Q101.41-9.33 101.36-7.42 101.31-5.52 100.92-3.66 100.53-1.81 99.62-0.46 98.72 0.88 96.96 0.88L96.96 0.88Q95.89 0.88 95.23 0.05 94.57-0.78 94.18-2.1 93.79-3.42 93.62-5.03 93.45-6.64 93.42-8.18 93.4-9.72 93.42-10.99 93.45-12.26 93.45-12.89L93.45-12.89Q93.45-13.87 93.52-16.11 93.59-18.36 93.84-21.12 94.08-23.88 94.47-26.81 94.86-29.74 95.5-32.15 96.13-34.57 97.04-36.08 97.94-37.6 99.16-37.55L99.16-37.55Q99.94-37.5 100.5-36.87 101.06-36.23 101.43-35.23 101.8-34.23 102.04-33.06 102.28-31.88 102.41-30.74 102.53-29.59 102.55-28.61 102.58-27.64 102.58-27.1L102.58-27.1Q102.58-25.83 102.53-24.56 102.48-23.29 102.38-22.02L102.38-22.02Q103.51-23.54 105.39-24.51 107.27-25.49 109.17-25.49L109.17-25.49Q111.61-25.49 112.86-24.15 114.1-22.8 114.64-20.83 115.18-18.85 115.22-16.63 115.27-14.4 115.27-12.65ZM126.79-34.08L126.79-34.08Q126.79-33.4 126.43-32.86 126.06-32.32 125.48-31.91 124.89-31.49 124.21-31.27 123.52-31.05 122.94-31.05L122.94-31.05Q121.96-31.05 121.23-31.54 120.5-32.03 120.5-33.06L120.5-33.06Q120.5-33.79 120.86-34.35 121.23-34.91 121.76-35.28 122.3-35.64 122.99-35.84 123.67-36.04 124.3-36.04L124.3-36.04Q125.23-36.04 126.01-35.6 126.79-35.16 126.79-34.08ZM127.18-17.48L127.18-17.48Q127.18-16.8 127.18-16.04 127.18-15.28 127.14-14.6L127.14-14.6Q127.09-13.77 127.09-12.38 127.09-10.99 126.99-9.38 126.89-7.76 126.67-6.1 126.45-4.44 125.96-3.08 125.48-1.71 124.67-0.85 123.86 0 122.64 0.05L122.64 0.05Q121.72 0.1 121.08-0.68 120.45-1.46 120.03-2.71 119.62-3.96 119.42-5.49 119.23-7.03 119.13-8.47 119.03-9.91 119.03-11.13 119.03-12.35 119.03-12.94L119.03-12.94Q119.03-13.72 119.03-15.16 119.03-16.6 119.13-18.26 119.23-19.92 119.49-21.63 119.76-23.34 120.28-24.76 120.79-26.17 121.62-27.05 122.45-27.93 123.72-27.93L123.72-27.93Q125.04-27.93 125.72-26.61 126.4-25.29 126.75-23.54 127.09-21.78 127.14-20.04 127.18-18.31 127.18-17.48ZM144.52 1.37L144.52 1.37Q143.69 1.37 143.2 0.61 142.71-0.15 142.47-1.12 142.22-2.1 142.15-3.1 142.07-4.1 142.07-4.64L142.07-4.64Q142.07-6.1 142.25-7.57 142.42-9.03 142.64-10.5 142.86-11.96 143.03-13.43 143.2-14.89 143.2-16.36L143.2-16.36Q143.2-16.94 143.15-17.63 143.1-18.31 142.93-18.92 142.76-19.53 142.37-19.92 141.98-20.31 141.34-20.31L141.34-20.31Q140.9-20.31 140.37-19.6 139.83-18.9 139.36-17.99 138.9-17.09 138.58-16.19 138.27-15.28 138.27-14.84L138.27-14.84Q138.27-13.77 138.29-12.67 138.32-11.57 138.32-10.45L138.32-10.45 138.32-7.62Q138.27-6.74 138.17-5.81 138.07-4.88 137.88-4L137.88-4Q137.73-3.13 137.44-2.32 137.14-1.51 136.68-0.9 136.22-0.29 135.58 0.1 134.95 0.49 134.07 0.49L134.07 0.49Q133.09 0.49 132.46-0.15 131.82-0.78 131.43-1.78 131.04-2.78 130.87-4.03 130.7-5.27 130.62-6.47 130.55-7.67 130.58-8.67 130.6-9.67 130.6-10.25L130.6-10.25 130.6-12.55Q130.6-14.4 130.53-16.21 130.45-18.02 130.45-19.82L130.45-19.82Q130.45-20.8 130.48-22.31 130.5-23.83 130.84-25.27 131.19-26.71 131.97-27.73 132.75-28.76 134.26-28.76L134.26-28.76Q134.95-28.76 135.48-28.32 136.02-27.88 136.44-27.25 136.85-26.61 137.12-25.88 137.39-25.15 137.53-24.61L137.53-24.61Q138.02-25.29 138.68-25.93 139.34-26.56 140.17-27.05 141-27.54 142.03-27.83 143.05-28.13 144.37-28.13L144.37-28.13Q146.86-28.13 148.25-26.93 149.64-25.73 150.3-23.95 150.96-22.17 151.11-20.12 151.25-18.07 151.25-16.41L151.25-16.41Q151.25-15.58 151.11-13.94 150.96-12.3 150.64-10.33 150.33-8.35 149.79-6.27 149.25-4.2 148.52-2.49 147.79-0.78 146.79 0.29 145.79 1.37 144.52 1.37ZM176.11-16.65L176.11-16.65Q176.11-14.16 176.03-11.67 175.96-9.18 175.76-6.69L175.76-6.69Q175.62-4.54 175.37-2.1 175.13 0.34 174.59 2.76 174.05 5.18 173.18 7.4 172.3 9.62 170.86 11.33 169.42 13.04 167.37 14.06 165.31 15.09 162.48 15.09L162.48 15.09Q161.16 15.09 159.53 14.67 157.89 14.26 156.45 13.48 155.01 12.7 154.01 11.55 153.01 10.4 153.01 8.89L153.01 8.89Q153.01 7.76 153.82 6.81 154.62 5.86 155.89 5.86L155.89 5.86Q156.67 5.86 157.38 6.13 158.09 6.4 158.8 6.74 159.5 7.08 160.16 7.35 160.82 7.62 161.51 7.62L161.51 7.62Q163.31 7.62 164.53 6.71 165.75 5.81 166.49 4.42 167.22 3.03 167.59 1.39 167.95-0.24 168.1-1.71L168.1-1.71Q167.12-0.59 165.83-0.17 164.53 0.24 163.12 0.24L163.12 0.24Q160.53 0.24 158.72-0.66 156.92-1.56 155.79-3.15 154.67-4.74 154.13-6.84 153.6-8.94 153.6-11.38L153.6-11.38Q153.6-12.89 153.91-14.79 154.23-16.7 154.87-18.65 155.5-20.61 156.45-22.46 157.4-24.32 158.67-25.73 159.94-27.15 161.53-28.03 163.12-28.91 165.02-28.91L165.02-28.91Q166.88-28.91 168.32-27.83 169.76-26.76 170-24.8L170-24.8Q170.54-25.83 171.42-26.83 172.3-27.83 173.57-27.83L173.57-27.83Q174.25-27.83 174.71-27.15 175.18-26.46 175.45-25.37 175.71-24.27 175.86-22.97 176.01-21.68 176.06-20.43 176.11-19.19 176.11-18.16 176.11-17.14 176.11-16.65ZM168.68-13.48L168.68-13.48Q168.68-14.21 168.46-15.38 168.24-16.55 167.83-17.63 167.41-18.7 166.78-19.48 166.14-20.26 165.27-20.26L165.27-20.26Q164.14-20.26 163.29-19.48 162.43-18.7 161.85-17.6 161.26-16.5 160.94-15.26 160.63-14.01 160.63-13.13L160.63-13.13Q160.63-12.5 160.72-11.43 160.82-10.35 161.14-9.33 161.46-8.3 161.99-7.57 162.53-6.84 163.41-6.84L163.41-6.84Q164.73-6.84 165.71-7.47 166.68-8.11 167.34-9.08 168-10.06 168.34-11.23 168.68-12.4 168.68-13.48ZM201.93 14.21L201.93 14.21Q200.76 14.21 199.27 13.84 197.78 13.48 196.46 12.79 195.14 12.11 194.24 11.13 193.34 10.16 193.34 8.89L193.34 8.89Q193.34 8.4 193.58 7.91 193.83 7.42 194.24 7.06 194.66 6.69 195.14 6.47 195.63 6.25 196.17 6.25L196.17 6.25Q196.75 6.25 197.32 6.42 197.88 6.59 198.46 6.84L198.46 6.84Q199.1 7.08 199.71 7.28 200.32 7.47 201 7.47L201 7.47Q202.22 7.47 203.13 6.64 204.03 5.81 204.67 4.47 205.3 3.13 205.69 1.49 206.08-0.15 206.3-1.76 206.52-3.37 206.62-4.79 206.72-6.2 206.76-7.08L206.76-7.08Q205.06-4.49 203.37-3.1 201.69-1.71 199.25-1.71L199.25-1.71Q197.39-1.71 196-2.49 194.61-3.27 193.63-4.54 192.65-5.81 192.02-7.45 191.38-9.08 191.07-10.84 190.75-12.6 190.65-14.28 190.55-15.97 190.65-17.38L190.65-17.38Q190.7-18.46 190.92-20.19 191.14-21.92 191.63-23.58 192.12-25.24 193-26.39 193.87-27.54 195.29-27.44L195.29-27.44Q196.22-27.39 196.8-26.64 197.39-25.88 197.76-24.76 198.12-23.63 198.29-22.29 198.46-20.95 198.51-19.63 198.56-18.31 198.54-17.21 198.51-16.11 198.51-15.53L198.51-15.53Q198.51-14.7 198.56-13.87 198.61-13.04 198.9-12.38 199.2-11.72 199.81-11.33 200.42-10.94 201.54-10.94L201.54-10.94Q202.81-10.94 203.57-11.57 204.32-12.21 204.69-13.16 205.06-14.11 205.15-15.21 205.25-16.31 205.25-17.29L205.25-17.29Q205.25-17.97 205.25-18.95 205.25-19.92 205.28-21 205.3-22.07 205.47-23.12 205.64-24.17 206.01-25.02 206.37-25.88 206.98-26.42 207.59-26.95 208.57-26.95L208.57-26.95Q209.79-26.95 210.67-26 211.55-25.05 212.16-23.51 212.77-21.97 213.14-20.12 213.5-18.26 213.7-16.43 213.89-14.6 213.97-13.06 214.04-11.52 214.04-10.64L214.04-10.64Q214.04-8.59 213.89-5.98 213.75-3.37 213.33-0.61 212.92 2.15 212.09 4.81 211.26 7.47 209.91 9.57 208.57 11.67 206.62 12.94 204.67 14.21 201.93 14.21ZM226.49 1.42L226.49 1.42Q224 1.42 222.14 0.1 220.29-1.22 219.02-3.27 217.75-5.32 217.11-7.84 216.48-10.35 216.48-12.79L216.48-12.79Q216.48-15.38 217.11-18.14 217.75-20.9 219.07-23.17 220.39-25.44 222.44-26.88 224.49-28.32 227.32-28.32L227.32-28.32Q230.05-28.32 231.98-26.83 233.91-25.34 235.08-23.12 236.25-20.9 236.74-18.26 237.23-15.63 237.08-13.28L237.08-13.28Q236.94-10.69 236.28-8.06 235.62-5.42 234.35-3.32 233.08-1.22 231.13 0.1 229.17 1.42 226.49 1.42ZM226.98-20.65L226.98-20.65Q226.24-20.65 225.68-19.87 225.12-19.09 224.76-17.97 224.39-16.85 224.19-15.6 224-14.36 224-13.43L224-13.43Q224-12.26 224.22-10.89 224.44-9.52 224.83-8.37 225.22-7.23 225.78-6.47 226.34-5.71 227.07-5.71L227.07-5.71Q227.86-5.71 228.42-6.45 228.98-7.18 229.32-8.3 229.66-9.42 229.81-10.77 229.96-12.11 229.96-13.28L229.96-13.28Q229.96-14.36 229.76-15.65 229.56-16.94 229.2-18.07 228.83-19.19 228.27-19.92 227.71-20.65 226.98-20.65ZM260.96-13.96L260.96-13.96Q260.96-11.28 260.42-8.64 259.88-6.01 258.62-3.93 257.35-1.86 255.22-0.59 253.1 0.68 249.92 0.68L249.92 0.68Q246.8 0.68 244.7-0.56 242.6-1.81 241.35-3.86 240.11-5.91 239.6-8.5 239.08-11.08 239.08-13.77L239.08-13.77Q239.08-16.7 239.77-19.58L239.77-19.58Q239.91-20.36 240.33-21.75 240.74-23.14 241.4-24.49 242.06-25.83 242.92-26.81 243.77-27.78 244.8-27.78L244.8-27.78Q245.77-27.78 246.36-27.25 246.95-26.71 247.29-25.9 247.63-25.1 247.73-24.19 247.82-23.29 247.82-22.56L247.82-22.56Q247.82-21.44 247.65-20.36 247.48-19.29 247.29-18.21L247.29-18.21Q247.09-16.75 246.92-15.28 246.75-13.82 246.75-12.35L246.75-12.35Q246.75-11.62 246.82-10.72 246.9-9.81 247.19-8.98 247.48-8.15 248.02-7.59 248.56-7.03 249.53-7.03L249.53-7.03Q250.8-7.03 251.56-7.71 252.32-8.4 252.68-9.42 253.05-10.45 253.15-11.62 253.24-12.79 253.24-13.77L253.24-13.77Q253.24-15.92 252.95-17.99 252.66-20.07 252.41-22.22L252.41-22.22Q252.37-22.46 252.37-22.9L252.37-22.9Q252.37-23.63 252.61-24.37 252.85-25.1 253.29-25.68 253.73-26.27 254.37-26.64 255-27 255.78-27L255.78-27Q256.86-27 257.69-26.25 258.52-25.49 259.08-24.29 259.64-23.1 260.01-21.61 260.37-20.12 260.59-18.68 260.81-17.24 260.89-15.97 260.96-14.7 260.96-13.96ZM296.45-6.88L296.45-6.88Q296.45-6.01 296.38-4.59 296.31-3.17 295.96-1.83 295.62-0.49 294.89 0.49 294.16 1.46 292.84 1.46L292.84 1.46Q291.03 1.46 290.06 0.29 289.08-0.88 289.13-2.64L289.13-2.64Q287.57-1.27 285.59-0.49 283.61 0.29 281.56 0.29L281.56 0.29Q280.14 0.29 278.87-0.39 277.6-1.07 276.63-2.15 275.65-3.22 275.07-4.57 274.48-5.91 274.48-7.23L274.48-7.23Q274.48-9.57 275.92-11.33 277.36-13.09 279.46-14.33 281.56-15.58 283.93-16.31 286.3-17.04 288.15-17.29L288.15-17.29Q288.15-17.53 288.18-17.72 288.2-17.92 288.2-18.16L288.2-18.16Q288.2-19.68 287.37-20.61 286.54-21.53 285.03-21.53L285.03-21.53Q283.81-21.53 282.93-21.12 282.05-20.7 281.27-20.19 280.49-19.68 279.7-19.26 278.92-18.85 277.95-18.85L277.95-18.85Q276.87-18.85 276.11-19.53 275.36-20.21 275.36-21.29L275.36-21.29Q275.36-22.9 276.31-24.22 277.26-25.54 278.7-26.44 280.14-27.34 281.83-27.86 283.51-28.37 284.93-28.37L284.93-28.37Q286.25-28.37 287.57-28.05 288.88-27.73 290.06-27.08 291.23-26.42 292.18-25.46 293.13-24.51 293.72-23.24L293.72-23.24Q294.6-21.44 295.13-19.41 295.67-17.38 295.96-15.26 296.26-13.13 296.35-11.01 296.45-8.89 296.45-6.88ZM288.64-8.45L288.64-8.45 288.49-11.77Q288.4-11.77 288.3-11.79 288.2-11.82 288.1-11.82L288.1-11.82Q287.47-11.82 286.52-11.5 285.56-11.18 284.68-10.62 283.81-10.06 283.2-9.38 282.58-8.69 282.58-7.96L282.58-7.96Q282.58-7.28 283.07-7.03 283.56-6.79 284.2-6.79L284.2-6.79Q285.27-6.79 286.49-7.35 287.71-7.91 288.64-8.45ZM313.69-26.86L313.69-26.86Q313.69-25.44 312.73-24.76 311.78-24.07 310.61-23.46 309.44-22.85 308.49-22.02 307.53-21.19 307.53-19.53L307.53-19.53Q307.53-18.65 307.95-18.02 308.36-17.38 308.97-16.87 309.58-16.36 310.32-15.82 311.05-15.28 311.66-14.6 312.27-13.92 312.68-12.94 313.1-11.96 313.1-10.55L313.1-10.55Q313.1-8.5 312.05-6.52 311-4.54 309.36-3 307.73-1.46 305.68-0.54 303.63 0.39 301.63 0.39L301.63 0.39Q300.8 0.39 299.97 0.27 299.13 0.15 298.48-0.2 297.82-0.54 297.38-1.15 296.94-1.76 296.94-2.73L296.94-2.73Q296.94-4.1 297.47-4.86 298.01-5.62 298.84-6.05 299.67-6.49 300.62-6.74 301.58-6.98 302.41-7.35 303.24-7.71 303.77-8.3 304.31-8.89 304.31-9.96L304.31-9.96Q304.31-10.99 303.51-12.08 302.7-13.18 301.72-14.43 300.75-15.67 299.94-17.09 299.13-18.51 299.13-20.21L299.13-20.21Q299.13-22.31 299.99-24.1 300.84-25.88 302.28-27.2 303.72-28.52 305.58-29.27 307.44-30.03 309.49-30.03L309.49-30.03Q310.27-30.03 311.02-29.88 311.78-29.74 312.37-29.37 312.95-29 313.32-28.39 313.69-27.78 313.69-26.86ZM337.32-26.27L337.32-26.27Q337.32-24.9 336.61-23.49 335.9-22.07 334.9-20.68 333.9-19.29 332.8-18.04 331.7-16.8 330.87-15.77L330.87-15.77Q331.55-14.7 332.58-12.92 333.61-11.13 334.53-9.13 335.46-7.13 336.12-5.22 336.78-3.32 336.78-2.05L336.78-2.05Q336.78-1.03 336.14-0.17 335.51 0.68 334.39 0.68L334.39 0.68Q333.56 0.68 332.7-0.02 331.85-0.73 330.99-1.88 330.14-3.03 329.36-4.44 328.58-5.86 327.92-7.23 327.26-8.59 326.74-9.79 326.23-10.99 325.94-11.72L325.94-11.72Q325.3-11.08 324.6-10.67 323.89-10.25 323.2-9.72L323.2-9.72Q323.2-8.69 323.13-6.84 323.06-4.98 322.69-3.17 322.33-1.37 321.5-0.02 320.67 1.32 319.05 1.32L319.05 1.32Q317.78 1.32 317.1 0.17 316.42-0.98 316.1-2.51 315.78-4.05 315.73-5.64 315.69-7.23 315.69-8.06L315.69-8.06Q315.69-11.67 315.88-15.28 316.08-18.9 316.12-22.51L316.12-22.51Q316.12-23.34 316.15-24.68 316.17-26.03 316.32-27.59 316.47-29.15 316.76-30.76 317.05-32.37 317.59-33.67 318.13-34.96 318.98-35.77 319.84-36.57 321.06-36.57L321.06-36.57Q321.94-36.57 322.55-35.91 323.16-35.25 323.52-34.23 323.89-33.2 324.06-31.93 324.23-30.66 324.3-29.42 324.38-28.17 324.38-27.1 324.38-26.03 324.38-25.39L324.38-25.39Q324.38-24.95 324.35-24.1 324.33-23.24 324.3-22.31 324.28-21.39 324.28-20.61 324.28-19.82 324.38-19.48L324.38-19.48Q324.72-19.48 325.4-20.14 326.09-20.8 326.99-21.83 327.89-22.85 328.94-24 329.99-25.15 331.09-26.17 332.19-27.2 333.26-27.86 334.34-28.52 335.27-28.52L335.27-28.52Q336.24-28.52 336.78-27.83 337.32-27.15 337.32-26.27ZM360.95-26.27L360.95-26.27Q360.95-24.71 360.14-23.36 359.34-22.02 358.14-20.87 356.94-19.73 355.5-18.87 354.06-18.02 352.84-17.53L352.84-17.53Q353.13-15.19 353.13-12.7L353.13-12.7Q353.13-11.87 353.11-10.84 353.09-9.81 352.82-8.91 352.55-8.01 351.94-7.37 351.33-6.74 350.2-6.74L350.2-6.74Q348.25-6.74 347.57-8.69L347.57-8.69Q347.32-9.42 347.18-10.67 347.03-11.91 346.96-13.26 346.88-14.6 346.88-15.87 346.88-17.14 346.88-17.97L346.88-17.97Q346.88-18.65 346.96-19.58 347.03-20.51 347.42-21.09L347.42-21.09Q347.86-21.73 348.89-22.34 349.91-22.95 351.01-23.63 352.11-24.32 352.94-25.15 353.77-25.98 353.77-27.1L353.77-27.1Q353.77-27.93 353.38-28.61 352.99-29.3 352.38-29.76 351.77-30.22 351.01-30.49 350.25-30.76 349.47-30.76L349.47-30.76Q347.62-30.76 346.54-30.15 345.47-29.54 344.71-28.83 343.95-28.13 343.29-27.51 342.64-26.9 341.61-26.9L341.61-26.9Q340.44-26.9 339.49-27.73 338.53-28.56 338.53-29.74L338.53-29.74Q338.53-31.64 339.66-32.98 340.78-34.33 342.44-35.13 344.1-35.94 345.96-36.3 347.81-36.67 349.28-36.67L349.28-36.67Q351.23-36.67 353.3-35.82 355.38-34.96 357.06-33.54 358.75-32.13 359.85-30.22 360.95-28.32 360.95-26.27ZM353.72-2.54L353.72-2.54Q353.72-1.71 353.3-1.12 352.89-0.54 352.28-0.15 351.67 0.24 350.91 0.44 350.16 0.63 349.47 0.63L349.47 0.63Q348.35 0.63 347.4 0.1 346.44-0.44 346.44-1.66L346.44-1.66Q346.44-2.44 346.86-3.05 347.27-3.66 347.91-4.1 348.54-4.54 349.3-4.76 350.06-4.98 350.74-4.98L350.74-4.98Q351.86-4.98 352.79-4.39 353.72-3.81 353.72-2.54ZM399.52 0.63L399.52 0.63Q397.95 0.63 396.71-1.03 395.46-2.69 394.54-5 393.61-7.32 393-9.77 392.39-12.21 392.09-13.82L392.09-13.82Q391.7-12.84 391.04-11.43 390.38-10.01 389.53-8.45 388.68-6.88 387.7-5.3 386.72-3.71 385.67-2.44 384.62-1.17 383.57-0.39 382.52 0.39 381.55 0.39L381.55 0.39Q380.23 0.39 379.23-0.88 378.23-2.15 377.54-4.2 376.86-6.25 376.4-8.74 375.93-11.23 375.69-13.72 375.44-16.21 375.35-18.36 375.25-20.51 375.25-21.83L375.25-21.83Q375.25-23.05 375.37-24.17 375.49-25.29 375.86-26.17 376.22-27.05 376.93-27.56 377.64-28.08 378.81-28.08L378.81-28.08Q379.94-28.08 380.74-27.25 381.55-26.42 382.08-25.07 382.62-23.73 382.96-22.05 383.3-20.36 383.5-18.63 383.7-16.89 383.77-15.26 383.84-13.62 383.89-12.45L383.89-12.45Q384.18-13.48 384.72-14.97 385.26-16.46 385.89-18.14 386.53-19.82 387.28-21.48 388.04-23.14 388.8-24.46 389.55-25.78 390.29-26.61 391.02-27.44 391.7-27.44L391.7-27.44 391.75-27.44Q392.63-27.44 393.46-26.61 394.29-25.78 395.07-24.46 395.85-23.14 396.54-21.46 397.22-19.78 397.81-18.04 398.39-16.31 398.83-14.67 399.27-13.04 399.56-11.87L399.56-11.87Q399.61-13.28 399.71-15.06 399.81-16.85 400.08-18.65 400.35-20.46 400.81-22.17 401.27-23.88 401.96-25.22 402.64-26.56 403.64-27.37 404.64-28.17 405.96-28.17L405.96-28.17Q407.33-28.17 407.99-27.22 408.65-26.27 408.65-24.9L408.65-24.9Q408.65-23.44 408.28-21 407.91-18.55 407.28-15.7 406.64-12.84 405.79-9.94 404.94-7.03 403.91-4.69 402.88-2.34 401.76-0.85 400.64 0.63 399.52 0.63ZM431.54-8.69L431.54-8.69Q431.54-7.03 430.49-5.44 429.44-3.86 427.86-2.61 426.27-1.37 424.46-0.61 422.66 0.15 421.14 0.15L421.14 0.15Q418.56 0.15 416.53-1.15 414.5-2.44 413.14-4.44 411.77-6.45 411.06-8.86 410.35-11.28 410.35-13.57L410.35-13.57Q410.35-16.02 411.04-18.8 411.72-21.58 413.11-23.93 414.5-26.27 416.63-27.83 418.75-29.39 421.68-29.39L421.68-29.39Q423.34-29.39 424.85-28.83 426.37-28.27 427.49-27.25 428.61-26.22 429.3-24.8 429.98-23.39 429.98-21.63L429.98-21.63Q429.98-19.34 429.01-17.33 428.03-15.33 426.42-13.87 424.81-12.4 422.71-11.5 420.61-10.6 418.41-10.5L418.41-10.5Q418.6-9.08 419.56-8.45 420.51-7.81 421.83-7.81L421.83-7.81Q422.8-7.81 423.73-8.3 424.66-8.79 425.54-9.4 426.42-10.01 427.27-10.5 428.13-10.99 429.01-10.99L429.01-10.99Q429.98-10.99 430.76-10.35 431.54-9.72 431.54-8.69ZM423.63-20.65L423.63-20.65Q423.63-21.29 423.29-21.97 422.95-22.66 422.22-22.66L422.22-22.66Q421.14-22.66 420.41-22.09 419.68-21.53 419.19-20.68 418.7-19.82 418.43-18.85 418.17-17.87 418.12-17.04L418.12-17.04Q418.8-17.19 419.75-17.43 420.7-17.68 421.56-18.09 422.41-18.51 423.02-19.14 423.63-19.78 423.63-20.65ZM466.01-6.88L466.01-6.88Q466.01-6.01 465.94-4.59 465.87-3.17 465.52-1.83 465.18-0.49 464.45 0.49 463.72 1.46 462.4 1.46L462.4 1.46Q460.59 1.46 459.62 0.29 458.64-0.88 458.69-2.64L458.69-2.64Q457.13-1.27 455.15-0.49 453.17 0.29 451.12 0.29L451.12 0.29Q449.7 0.29 448.43-0.39 447.16-1.07 446.19-2.15 445.21-3.22 444.63-4.57 444.04-5.91 444.04-7.23L444.04-7.23Q444.04-9.57 445.48-11.33 446.92-13.09 449.02-14.33 451.12-15.58 453.49-16.31 455.86-17.04 457.71-17.29L457.71-17.29Q457.71-17.53 457.74-17.72 457.76-17.92 457.76-18.16L457.76-18.16Q457.76-19.68 456.93-20.61 456.1-21.53 454.59-21.53L454.59-21.53Q453.37-21.53 452.49-21.12 451.61-20.7 450.83-20.19 450.05-19.68 449.26-19.26 448.48-18.85 447.51-18.85L447.51-18.85Q446.43-18.85 445.68-19.53 444.92-20.21 444.92-21.29L444.92-21.29Q444.92-22.9 445.87-24.22 446.82-25.54 448.26-26.44 449.7-27.34 451.39-27.86 453.07-28.37 454.49-28.37L454.49-28.37Q455.81-28.37 457.13-28.05 458.44-27.73 459.62-27.08 460.79-26.42 461.74-25.46 462.69-24.51 463.28-23.24L463.28-23.24Q464.16-21.44 464.69-19.41 465.23-17.38 465.52-15.26 465.82-13.13 465.91-11.01 466.01-8.89 466.01-6.88ZM458.2-8.45L458.2-8.45 458.05-11.77Q457.96-11.77 457.86-11.79 457.76-11.82 457.66-11.82L457.66-11.82Q457.03-11.82 456.08-11.5 455.12-11.18 454.24-10.62 453.37-10.06 452.76-9.38 452.14-8.69 452.14-7.96L452.14-7.96Q452.14-7.28 452.63-7.03 453.12-6.79 453.76-6.79L453.76-6.79Q454.83-6.79 456.05-7.35 457.27-7.91 458.2-8.45ZM482.81 1.37L482.81 1.37Q481.98 1.37 481.49 0.61 481-0.15 480.76-1.12 480.51-2.1 480.44-3.1 480.36-4.1 480.36-4.64L480.36-4.64Q480.36-6.1 480.54-7.57 480.71-9.03 480.93-10.5 481.15-11.96 481.32-13.43 481.49-14.89 481.49-16.36L481.49-16.36Q481.49-16.94 481.44-17.63 481.39-18.31 481.22-18.92 481.05-19.53 480.66-19.92 480.27-20.31 479.63-20.31L479.63-20.31Q479.19-20.31 478.66-19.6 478.12-18.9 477.65-17.99 477.19-17.09 476.87-16.19 476.56-15.28 476.56-14.84L476.56-14.84Q476.56-13.77 476.58-12.67 476.61-11.57 476.61-10.45L476.61-10.45 476.61-7.62Q476.56-6.74 476.46-5.81 476.36-4.88 476.17-4L476.17-4Q476.02-3.13 475.73-2.32 475.43-1.51 474.97-0.9 474.51-0.29 473.87 0.1 473.24 0.49 472.36 0.49L472.36 0.49Q471.38 0.49 470.75-0.15 470.11-0.78 469.72-1.78 469.33-2.78 469.16-4.03 468.99-5.27 468.91-6.47 468.84-7.67 468.87-8.67 468.89-9.67 468.89-10.25L468.89-10.25 468.89-12.55Q468.89-14.4 468.82-16.21 468.74-18.02 468.74-19.82L468.74-19.82Q468.74-20.8 468.77-22.31 468.79-23.83 469.13-25.27 469.48-26.71 470.26-27.73 471.04-28.76 472.55-28.76L472.55-28.76Q473.24-28.76 473.77-28.32 474.31-27.88 474.73-27.25 475.14-26.61 475.41-25.88 475.68-25.15 475.82-24.61L475.82-24.61Q476.31-25.29 476.97-25.93 477.63-26.56 478.46-27.05 479.29-27.54 480.32-27.83 481.34-28.13 482.66-28.13L482.66-28.13Q485.15-28.13 486.54-26.93 487.93-25.73 488.59-23.95 489.25-22.17 489.4-20.12 489.54-18.07 489.54-16.41L489.54-16.41Q489.54-15.58 489.4-13.94 489.25-12.3 488.93-10.33 488.62-8.35 488.08-6.27 487.54-4.2 486.81-2.49 486.08-0.78 485.08 0.29 484.08 1.37 482.81 1.37ZM506.58-26.86L506.58-26.86Q506.58-25.44 505.63-24.76 504.68-24.07 503.51-23.46 502.34-22.85 501.38-22.02 500.43-21.19 500.43-19.53L500.43-19.53Q500.43-18.65 500.85-18.02 501.26-17.38 501.87-16.87 502.48-16.36 503.21-15.82 503.95-15.28 504.56-14.6 505.17-13.92 505.58-12.94 506-11.96 506-10.55L506-10.55Q506-8.5 504.95-6.52 503.9-4.54 502.26-3 500.63-1.46 498.58-0.54 496.52 0.39 494.52 0.39L494.52 0.39Q493.69 0.39 492.86 0.27 492.03 0.15 491.37-0.2 490.71-0.54 490.27-1.15 489.84-1.76 489.84-2.73L489.84-2.73Q489.84-4.1 490.37-4.86 490.91-5.62 491.74-6.05 492.57-6.49 493.52-6.74 494.47-6.98 495.3-7.35 496.13-7.71 496.67-8.3 497.21-8.89 497.21-9.96L497.21-9.96Q497.21-10.99 496.4-12.08 495.6-13.18 494.62-14.43 493.64-15.67 492.84-17.09 492.03-18.51 492.03-20.21L492.03-20.21Q492.03-22.31 492.89-24.1 493.74-25.88 495.18-27.2 496.62-28.52 498.48-29.27 500.33-30.03 502.38-30.03L502.38-30.03Q503.17-30.03 503.92-29.88 504.68-29.74 505.26-29.37 505.85-29 506.22-28.39 506.58-27.78 506.58-26.86ZM532.85 0.63L532.85 0.63Q531.29 0.63 530.04-1.03 528.8-2.69 527.87-5 526.94-7.32 526.33-9.77 525.72-12.21 525.43-13.82L525.43-13.82Q525.04-12.84 524.38-11.43 523.72-10.01 522.86-8.45 522.01-6.88 521.03-5.3 520.06-3.71 519.01-2.44 517.96-1.17 516.91-0.39 515.86 0.39 514.88 0.39L514.88 0.39Q513.56 0.39 512.56-0.88 511.56-2.15 510.88-4.2 510.19-6.25 509.73-8.74 509.27-11.23 509.02-13.72 508.78-16.21 508.68-18.36 508.58-20.51 508.58-21.83L508.58-21.83Q508.58-23.05 508.7-24.17 508.83-25.29 509.19-26.17 509.56-27.05 510.27-27.56 510.98-28.08 512.15-28.08L512.15-28.08Q513.27-28.08 514.08-27.25 514.88-26.42 515.42-25.07 515.96-23.73 516.3-22.05 516.64-20.36 516.83-18.63 517.03-16.89 517.1-15.26 517.18-13.62 517.23-12.45L517.23-12.45Q517.52-13.48 518.06-14.97 518.59-16.46 519.23-18.14 519.86-19.82 520.62-21.48 521.38-23.14 522.13-24.46 522.89-25.78 523.62-26.61 524.35-27.44 525.04-27.44L525.04-27.44 525.09-27.44Q525.97-27.44 526.8-26.61 527.63-25.78 528.41-24.46 529.19-23.14 529.87-21.46 530.56-19.78 531.14-18.04 531.73-16.31 532.17-14.67 532.61-13.04 532.9-11.87L532.9-11.87Q532.95-13.28 533.05-15.06 533.14-16.85 533.41-18.65 533.68-20.46 534.14-22.17 534.61-23.88 535.29-25.22 535.98-26.56 536.98-27.37 537.98-28.17 539.3-28.17L539.3-28.17Q540.66-28.17 541.32-27.22 541.98-26.27 541.98-24.9L541.98-24.9Q541.98-23.44 541.61-21 541.25-18.55 540.61-15.7 539.98-12.84 539.12-9.94 538.27-7.03 537.24-4.69 536.22-2.34 535.1-0.85 533.97 0.63 532.85 0.63ZM564.88-8.69L564.88-8.69Q564.88-7.03 563.83-5.44 562.78-3.86 561.19-2.61 559.61-1.37 557.8-0.61 555.99 0.15 554.48 0.15L554.48 0.15Q551.89 0.15 549.86-1.15 547.84-2.44 546.47-4.44 545.1-6.45 544.4-8.86 543.69-11.28 543.69-13.57L543.69-13.57Q543.69-16.02 544.37-18.8 545.05-21.58 546.45-23.93 547.84-26.27 549.96-27.83 552.09-29.39 555.02-29.39L555.02-29.39Q556.68-29.39 558.19-28.83 559.7-28.27 560.83-27.25 561.95-26.22 562.63-24.8 563.32-23.39 563.32-21.63L563.32-21.63Q563.32-19.34 562.34-17.33 561.36-15.33 559.75-13.87 558.14-12.4 556.04-11.5 553.94-10.6 551.74-10.5L551.74-10.5Q551.94-9.08 552.89-8.45 553.84-7.81 555.16-7.81L555.16-7.81Q556.14-7.81 557.07-8.3 557.99-8.79 558.87-9.4 559.75-10.01 560.61-10.5 561.46-10.99 562.34-10.99L562.34-10.99Q563.32-10.99 564.1-10.35 564.88-9.72 564.88-8.69ZM556.97-20.65L556.97-20.65Q556.97-21.29 556.63-21.97 556.29-22.66 555.55-22.66L555.55-22.66Q554.48-22.66 553.75-22.09 553.01-21.53 552.53-20.68 552.04-19.82 551.77-18.85 551.5-17.87 551.45-17.04L551.45-17.04Q552.13-17.19 553.09-17.43 554.04-17.68 554.89-18.09 555.75-18.51 556.36-19.14 556.97-19.78 556.97-20.65ZM583.77-18.26L583.77-18.26Q583.09-18.21 582.6-18.38 582.11-18.55 581.62-18.75L581.62-18.75Q581.18-18.95 580.75-19.12 580.31-19.29 579.77-19.24L579.77-19.24Q578.79-19.19 578.04-18.7 577.28-18.21 576.67-17.48 576.06-16.75 575.62-15.84 575.18-14.94 574.93-14.06L574.93-14.06Q574.79-13.48 574.72-12.28 574.64-11.08 574.64-9.72L574.64-9.72Q574.59-8.3 574.59-7.03 574.59-5.76 574.5-5.03L574.5-5.03Q574.45-4.25 574.25-3.2 574.06-2.15 573.64-1.22 573.23-0.29 572.54 0.34 571.86 0.98 570.78 0.98L570.78 0.98Q569.95 0.98 569.34 0.49 568.73 0 568.32-0.81 567.9-1.61 567.64-2.69 567.37-3.76 567.22-4.88L567.22-4.88Q567.07-6.05 567-7.23 566.93-8.4 566.9-9.45 566.88-10.5 566.9-11.38 566.93-12.26 566.93-12.79L566.93-12.79Q566.88-14.5 566.76-16.24 566.63-17.97 566.63-19.68L566.63-19.68Q566.63-20.75 566.73-22.07 566.83-23.39 567.27-24.54 567.71-25.68 568.56-26.46 569.42-27.25 570.93-27.25L570.93-27.25Q571.76-27.25 572.35-26.71 572.93-26.17 573.3-25.39 573.67-24.61 573.86-23.73 574.06-22.85 574.1-22.12L574.1-22.12Q575.28-24.02 576.74-25.22 578.21-26.42 580.55-26.51L580.55-26.51Q581.72-26.56 582.87-26.29 584.02-26.03 584.97-25.42 585.92-24.8 586.53-23.83 587.14-22.85 587.19-21.53L587.19-21.53Q587.29-19.97 586.26-19.14 585.24-18.31 583.77-18.26Z" opacity="1" transform="matrix(1,0,0,1,0,0)" fill="#000000" class="undefined-text-1" data-fill-palette-color="secondary" id="text-1"></path></svg></g></svg></g></svg></g></svg></g><g transform="matrix(1,0,0,1,0,0.38635953861147243)"><svg viewBox="0 0 130.9717820334838 154.5438154445895" height="154.5438154445895" width="130.9717820334838"><g><svg xmlns="http://www.w3.org/2000/svg" data-name="Layer 1" viewBox="8.411953926086426 0.9875147342681885 83.1474838256836 98.11219787597656" x="0" y="0" height="154.5438154445895" width="130.9717820334838" class="icon-icon-0" data-fill-palette-color="accent" id="icon-0"><path d="M91.46 36.09a38 38 0 0 0-35.13-35A37.61 37.61 0 0 0 27.8 11.19a38 38 0 0 0-12 27.71 12.61 12.61 0 0 1-1.1 5.16L9 56.69a6.8 6.8 0 0 0 4.07 9.22l2.65 0.88V77a10 10 0 0 0 10 10H36l1.94 6.81a7.24 7.24 0 0 0 9 5L82.17 88.65a7.25 7.25 0 0 0 5-9L82.52 63.46A38.05 38.05 0 0 0 91.46 36.09Zm-16 23.71L73.94 61.4l5.7 20L45.21 91.21l-3.41-12H25.72A2.28 2.28 0 0 1 23.44 77V65.21A5.5 5.5 0 0 0 19.66 60l-3.21-1.06L21.67 47.2a20.24 20.24 0 0 0 1.76-8.29A30.22 30.22 0 0 1 55.8 8.76a30.28 30.28 0 0 1 28 27.89A29.94 29.94 0 0 1 75.47 59.81Zm-17.69-0.36a4.15 4.15 0 1 1-4.15-4.15A4.16 4.16 0 0 1 57.77 59.44Zm9.31-27.8A13.4 13.4 0 0 1 57.94 44.8a0.48 0.48 0 0 0-0.2 0.12v3a4.13 4.13 0 0 1-8.27 0V44.9A8.42 8.42 0 0 1 55.29 37a5.19 5.19 0 0 0 3.53-5.09 5.32 5.32 0 0 0-5.25-5 5.16 5.16 0 0 0-4.64 2.95 4.13 4.13 0 1 1-7.45-3.59 13.38 13.38 0 0 1 12-7.62h0.08A13.57 13.57 0 0 1 67.08 31.64Z" fill="#000000" data-fill-palette-color="accent"></path></svg></g></svg></g></svg></g><defs></defs></svg><rect width="395.52" height="110.73091970303058" fill="none" stroke="none" visibility="hidden"></rect></g></svg></g></svg>